<svg xmlns="http://www.w3.org/2000/svg" xml:space="preserve" width="120" height="120" style="shape-rendering:geometricPrecision;text-rendering:geometricPrecision;image-rendering:optimizeQuality;fill-rule:evenodd;clip-rule:evenodd"><defs><clipPath id="a"><path d="M60 0c33.14 0 60 26.86 60 60s-26.86 60-60 60S0 93.14 0 60 26.86 0 60 0z"/></clipPath></defs><path d="M60 0c33.14 0 60 26.86 60 60s-26.86 60-60 60S0 93.14 0 60 26.86 0 60 0z" style="fill:#fefefe"/><g style="clip-path:url(#a)"><path d="M79.39 96.52H39.71l-5.7 18.4H-1.73L40.75-5.98h38.33l42.65 120.9H85.06l-5.67-18.4zm-7.41-24.17L59.6 32.23 47.18 72.35h24.8z" style="fill:#ed6e00;fill-rule:nonzero"/></g><path d="M60 0c33.14 0 60 26.86 60 60s-26.86 60-60 60S0 93.14 0 60 26.86 0 60 0z" style="fill:none"/></svg>